HIERARCHY
ROOT Hips
{
	OFFSET 0.00000 0.00000 0.00000
	CHANNELS 6 Xposition Yposition Zposition Yrotation Zrotation Xrotation 
	JOINT Lumbar
	{
		OFFSET 0 0 0
		CHANNELS 3 Zrotation Xrotation Yrotation
		JOINT Neck
		{
			OFFSET 0.00 0.2701 0.00
			CHANNELS 3 Zrotation Xrotation Yrotation
			End Site
			{
				OFFSET 0.00 0.1379 0.00
			}
		}
		JOINT RightShoulder
		{
			OFFSET 0.0119 0.2289 0.1181
			CHANNELS 3 Zrotation Xrotation Yrotation
			JOINT RightElbow
			{
				OFFSET 0.00 -0.1475 0.00
				CHANNELS 2 Zrotation Yrotation
				JOINT RightWrist
				{
					OFFSET 0.00 -0.1605 0.00
					CHANNELS 2 Zrotation Xrotation
					End Site
					{
						OFFSET 0.0040 -0.1068 0.0006
					}
				}
			}
		}
		JOINT LeftShoulder
		{
			OFFSET 0.0119 0.2289 -0.1181
			CHANNELS 3 Zrotation Xrotation Yrotation
			JOINT LeftElbow
			{
				OFFSET 0.00 -0.1475 0.00
				CHANNELS 2 Zrotation Yrotation
				JOINT LeftWrist
				{
					OFFSET 0.00 -0.1605 0.00
					CHANNELS 2 Zrotation Xrotation
					End Site
					{
						OFFSET 0.0040 -0.1068 -0.0006
					}
				}
			}
		}
	}
	JOINT RightHip
	{
		OFFSET 0.0316 -0.0424 0.0458
		CHANNELS 3 Zrotation Xrotation Yrotation
		JOINT RightKnee
		{
			OFFSET 0.00 -0.2438 0.00
			CHANNELS 1 Zrotation
			JOINT RightAnkle
			{
				OFFSET 0.00 -0.2449 0.00
				CHANNELS 3 Zrotation Xrotation Yrotation
				End Site
				{
					OFFSET 0.1237 -0.0542 0.0051
				}
			}
		}
	}
	JOINT LeftHip
	{
		OFFSET 0.0316 -0.0424 -0.0458
		CHANNELS 3 Zrotation Xrotation Yrotation
		JOINT LeftKnee
		{
			OFFSET 0.00 -0.2438 0.00
			CHANNELS 1 Zrotation
			JOINT LeftAnkle
			{
				OFFSET 0.00 -0.2449 0.00
				CHANNELS 3 Zrotation Xrotation Yrotation
				End Site
				{
					OFFSET 0.1237 -0.0542 -0.0051
				}
			}
		}
	}
}
MOTION
Frames: 24
Frame Time: 0.02
0.00255 -0.00054 -0.00231 136.17096 -24.26686 2.19318 35.02988 4.55215 -3.66838 -20.68283 -10.79923 -0.41686 -16.65419 -18.87878 9.35187 40.80133 81.27498 -10.00406 -3.40795 -30.76655 18.73801 -12.47127 45.05613 -85.04707 -11.95978 5.03037 24.26211 0.99176 -11.04461 -19.95823 -7.93409 -4.17247 -2.90924 29.43869 10.09287 1.41395 -28.94614 -11.55546 4.53846 3.28916
0.00173 -0.00079 -0.00146 136.47594 -24.56152 2.01961 35.43549 4.55548 -3.93011 -20.59876 -10.82819 -0.4176 -16.98705 -18.86213 9.1395 40.99555 81.23757 -9.98386 -3.40476 -29.76304 19.14296 -12.90105 46.49005 -85.1649 -12.03393 5.05958 24.66012 1.06253 -11.07666 -20.10116 -7.92711 -4.2039 -2.92605 29.74932 10.07997 1.41227 -28.75695 -11.47095 4.5576 3.29932
0.00091 -0.00104 -0.00062 136.78029 -24.85517 1.84647 35.83969 4.55864 -4.19125 -20.51453 -10.85693 -0.41834 -17.31893 -18.84518 8.92769 41.18826 81.20011 -9.96274 -3.40123 -28.76135 19.54677 -13.33019 47.9195 -85.281 -12.10672 5.08818 25.05678 1.13304 -11.10858 -20.24352 -7.92019 -4.23526 -2.94284 30.05898 10.06712 1.41074 -28.56835 -11.38654 4.57666 3.30941
0.0001 -0.00129 0.00023 137.0844 -25.14889 1.67342 36.24403 4.56193 -4.45222 -20.43066 -10.88579 -0.41908 -17.65076 -18.82853 8.71594 41.38171 81.16278 -9.94245 -3.39799 -27.76068 19.9505 -13.75877 49.34903 -85.39821 -12.18048 5.11723 25.45353 1.20359 -11.14051 -20.38598 -7.91324 -4.2666 -2.9596 30.36864 10.05428 1.40911 -28.37974 -11.30226 4.59574 3.31953
-0.00071 -0.00155 0.00107 137.38895 -25.44369 1.49994 36.64986 4.56548 -4.71367 -20.34709 -10.91488 -0.41982 -17.98358 -18.81231 8.50368 41.57707 81.12559 -9.92344 -3.39522 -26.75878 20.35527 -14.18768 50.78296 -85.51779 -12.25596 5.14706 25.85172 1.2744 -11.1726 -20.52907 -7.90619 -4.29799 -2.97639 30.67932 10.04136 1.40721 -28.19056 -11.21796 4.61493 3.32973
-0.00153 -0.00179 0.00192 137.69283 -25.73492 1.32753 37.05062 4.5678 -4.97409 -20.26149 -10.94287 -0.42056 -18.3135 -18.79384 8.29286 41.76424 81.08757 -9.89789 -3.39008 -25.75767 20.75702 -14.61726 52.20284 -85.62664 -12.32309 5.17307 26.24516 1.34428 -11.20417 -20.66989 -7.89955 -4.3293 -2.99316 30.98684 10.02864 1.40644 -28.00317 -11.13333 4.63371 3.3396
-0.00234 -0.00205 0.00276 137.99787 -26.0329 1.15321 37.46107 4.57256 -5.2364 -20.18009 -10.97312 -0.4213 -18.64875 -18.77991 8.07929 41.9675 81.05118 -9.88556 -3.38972 -24.7558 21.16449 -15.0451 53.64962 -85.7566 -12.40708 5.20677 26.64758 1.41597 -11.23669 -20.81509 -7.89211 -4.36074 -3.00994 31.30027 10.01561 1.40355 -27.81238 -11.04942 4.65326 3.35011
-0.00316 -0.0023 0.00361 138.3016 -26.32487 0.98057 37.86271 4.57512 -5.49679 -20.09479 -11.00114 -0.42204 -18.97937 -18.76181 7.86844 42.15626 81.01345 -9.86097 -3.38496 -23.75511 21.56656 -15.47442 55.0712 -85.86779 -12.47525 5.23333 27.04198 1.48594 -11.26847 -20.95633 -7.88539 -4.39203 -3.0267 31.60842 10.00274 1.40232 -27.62473 -10.96492 4.67215 3.36007
-0.00397 -0.00254 0.00446 138.60486 -26.60877 0.81021 38.25322 4.57477 -5.75566 -20.0047 -11.02702 -0.42278 -19.30335 -18.73847 7.66005 42.32587 80.97339 -9.82147 -3.37471 -22.75332 21.96271 -15.90632 56.46414 -85.95306 -12.525 5.25127 27.42572 1.55402 -11.29878 -21.09243 -7.87961 -4.4233 -3.04352 31.90958 9.99055 1.40432 -27.44082 -10.87935 4.69005 3.36919
-0.00479 -0.00283 0.00528 138.91425 -26.93693 0.62743 38.7067 4.59051 -6.02577 -19.94208 -11.06698 -0.42352 -19.66261 -18.74482 7.43491 42.60135 80.94466 -9.86797 -3.39571 -21.75015 22.39496 -16.32573 58.02843 -86.17849 -12.68349 5.31913 27.86821 1.63366 -11.33584 -21.25723 -7.8686 -4.45517 -3.06027 32.24934 9.97591 1.39137 -27.23509 -10.79887 4.7131 3.38262
-0.00559 -0.00302 0.00618 139.20846 -27.17306 0.47042 39.02797 4.57271 -6.27056 -19.82162 -11.07611 -0.42426 -19.94924 -18.6889 7.24681 42.65631 80.89338 -9.73298 -3.35101 -20.75507 22.74972 -16.76991 59.22691 -86.11407 -12.6109 5.28151 28.18836 1.68847 -11.35977 -21.36202 -7.8685 -4.48546 -3.07697 32.50868 9.96551 1.40763 -27.0756 -10.70834 4.72564 3.38728
-0.00634 -0.00296 0.0073 139.47889 -27.14281 0.38815 38.97689 4.45862 -6.45855 -19.53981 -11.0086 -0.42496 -20.02015 -18.45706 7.14668 42.07691 80.76821 -9.09665 -3.12255 -19.74055 22.90024 -17.29406 59.44678 -85.19706 -11.91337 4.95332 28.15605 1.67802 -11.33765 -21.29595 -7.89987 -4.51388 -3.09502 32.53649 9.97445 1.52346 -27.04256 -10.58443 4.70622 3.36501
-0.00707 -0.0028 0.00852 139.73057 -27.02245 0.33098 38.79434 4.31159 -6.61882 -19.20043 -10.90844 -0.42567 -20.02127 -18.16348 7.08594 41.28184 80.62246 -8.27978 -2.829 -18.74289 22.97106 -17.83949 59.29441 -83.99905 -10.98373 4.51989 28.00371 1.64216 -11.30382 -21.17061 -7.94194 -4.54026 -3.11275 32.48524 9.98615 1.6646 -27.056 -10.45157 4.67689 3.33447
-0.00782 -0.00268 0.0097 139.97944 -26.95268 0.25974 38.67876 4.18246 -6.78345 -18.88907 -10.8183 -0.42638 -20.06499 -17.90161 7.01657 40.60403 80.49418 -7.54627 -2.56714 -17.76334 23.07324 -18.36914 59.29626 -82.96768 -10.15224 4.13471 27.91766 1.61597 -11.28236 -21.07667 -7.97809 -4.56595 -3.12964 32.47767 9.9917 1.78203 -27.04851 -10.32647 4.65406 3.30955
-0.00852 -0.00256 0.01087 140.27694 -26.84309 0.19991 38.53432 4.04108 -6.9826 -18.56965 -10.74931 -0.42703 -20.06232 -17.62479 6.90956 39.843 80.33228 -6.80229 -2.29519 -16.67069 23.19706 -18.93033 59.36151 -81.77362 -9.34451 3.74551 27.78305 1.59742 -11.23268 -20.96447 -8.01862 -4.59843 -3.15065 32.43855 10.01829 1.9528 -27.04048 -10.18545 4.62252 3.27667
-0.00932 -0.00243 0.01209 140.46766 -26.79379 0.12212 38.41647 3.91718 -7.10354 -18.25351 -10.62745 -0.42787 -20.1401 -17.36375 6.88851 39.20612 80.23466 -6.04303 -2.03017 -15.82305 23.25532 -19.42373 59.20512 -80.84901 -8.44069 3.34225 27.71957 1.55722 -11.23704 -20.87539 -8.0527 -4.61631 -3.16303 32.4447 10.00125 2.01627 -27.04435 -10.07587 4.60707 3.2585
-0.01044 -0.00226 0.01344 140.37687 -26.94516 -0.01012 38.42526 3.85169 -7.01335 -17.95981 -10.37712 -0.42863 -20.45419 -17.16762 7.10926 38.94934 80.32698 -5.23691 -1.7876 -15.60193 23.16604 -19.7861 58.53981 -80.76302 -7.25595 2.90438 27.89659 1.46117 -11.40981 -20.87256 -8.06506 -4.59421 -3.1514 32.61102 9.86726 1.79826 -27.07185 -10.0517 4.63583 3.28228
-0.01166 -0.00208 0.01486 140.17752 -27.15858 -0.16154 38.46175 3.8046 -6.84589 -17.67168 -10.0732 -0.42968 -20.8521 -16.98831 7.41188 38.8281 80.48328 -4.43039 -1.55564 -15.6356 23.01102 -20.06842 57.66165 -80.95365 -5.99522 2.45968 28.14735 1.34464 -11.63401 -20.89375 -8.07082 -4.55757 -3.13116 32.82337 9.68879 1.46907 -27.10942 -10.05998 4.68148 3.32121
-0.01283 -0.00191 0.01625 140.0223 -27.33505 -0.30505 38.4714 3.74764 -6.71498 -17.38136 -9.7872 -0.43102 -21.21378 -16.7973 7.66855 38.65481 80.60544 -3.65671 -1.32843 -15.5824 22.87684 -20.34663 56.87382 -81.00021 -4.81799 2.03274 28.35376 1.23904 -11.82441 -20.89856 -8.08041 -4.52766 -3.11498 33.00343 9.52754 1.17496 -27.14084 -10.05605 4.7213 3.35376
-0.01401 -0.00174 0.01761 139.88892 -27.54332 -0.4443 38.53538 3.69562 -6.57663 -17.08713 -9.52612 -0.43064 -21.56573 -16.62148 7.96611 38.4329 80.74839 -2.74066 -1.06266 -15.40668 22.7777 -20.79493 56.10211 -81.11251 -3.42963 1.54175 28.59868 1.12575 -12.05979 -20.92366 -8.08677 -4.497 -3.09809 33.22594 9.37774 0.94036 -27.1801 -10.04192 4.75352 3.38422
-0.0152 -0.00156 0.01907 139.68387 -27.70378 -0.59726 38.49604 3.63843 -6.43634 -16.80366 -9.20225 -0.43382 -21.95804 -16.41852 8.19417 38.34822 80.86336 -2.12113 -0.87539 -15.54768 22.59138 -20.87165 55.2485 -81.15969 -2.46136 1.18203 28.78628 1.02387 -12.21213 -20.91388 -8.09829 -4.46466 -3.08072 33.37549 9.19513 0.56335 -27.20535 -10.05583 4.80501 3.42235
-0.01638 -0.00136 0.02075 139.3133 -27.69542 -0.78389 38.15136 3.55996 -6.30486 -16.54426 -8.70621 -0.44746 -22.44793 -16.14004 8.23938 38.60202 80.88673 -2.34085 -0.95 -16.49046 22.17782 -19.92484 54.24586 -80.9396 -2.71351 1.20111 28.76534 0.95909 -12.13821 -20.79412 -8.12425 -4.42968 -3.06335 33.28238 8.91873 -0.25103 -27.18441 -10.14802 4.91163 3.48124
-0.01757 -0.00115 0.02253 138.87352 -27.64108 -0.98368 37.70446 3.47629 -6.17508 -16.29668 -8.15138 -0.46455 -22.97459 -15.83375 8.20711 38.99153 80.87968 -2.85591 -1.09671 -17.74477 21.67981 -18.61014 53.166 -80.64947 -3.38476 1.34879 28.69058 0.90641 -11.97669 -20.64004 -8.15582 -4.39374 -3.04591 33.12007 8.61339 -1.1919 -27.14963 -10.26575 5.036 3.54677
-0.01875 -0.00095 0.02429 138.46155 -27.62267 -1.17723 37.31423 3.39681 -6.04785 -16.04666 -7.63122 -0.47957 -23.4805 -15.53766 8.18993 39.32503 80.88566 -3.22358 -1.17684 -18.8636 21.22239 -17.47466 52.10614 -80.40591 -3.83748 1.43049 28.66251 0.84804 -11.84434 -20.50726 -8.18575 -4.35933 -3.02905 33.00968 8.33061 -2.02796 -27.12433 -10.36604 5.14832 3.60715
